<?xml version="1.0" encoding="iso-8859-1"?>
<!-- Generator: Adobe Illustrator 19.0.0, SVG Export Plug-In . SVG Version: 6.00 Build 0)  -->
<svg version="1.1" id="Layer_1" xmlns="http://www.w3.org/2000/svg" xmlns:xlink="http://www.w3.org/1999/xlink" x="0px" y="0px"
	 viewBox="0 0 512 512" style="enable-background:new 0 0 512 512;" xml:space="preserve">
<circle style="fill:#88C5CC;" cx="256" cy="256" r="256"/>
<path style="fill:#406A80;" d="M339.216,387.528l-29.552,5.14L318,403.332l-62,49.004l-62-49.004l8.336-10.664l-30.668-5.336
	l6.036-3.64l-52.608,9.644l-33.172,59.136C136.356,489.616,193.556,512,256,512c57.368,0,110.324-18.872,153.008-50.744l-38.1-67.92
	L339.216,387.528z"/>
<path style="fill:#395F73;" d="M386.908,393.336l-52.612-9.644l6.036,3.64l-1.116,0.196l31.692,5.808l38.1,67.92
	c3.78-2.82,7.456-5.768,11.072-8.788L386.908,393.336z"/>
<g>
	<path style="fill:#FFDC80;" d="M246.828,102.688c1.428-0.12,2.868-0.216,4.32-0.284
		C249.688,102.468,248.256,102.572,246.828,102.688z"/>
	<path style="fill:#FFDC80;" d="M178.976,254.164c-1.584,1.236-3.548,2.004-5.712,2.004c-5.148,0-9.324-4.176-9.324-9.324
		s4.176-9.324,9.324-9.324c1.636,0,3.152,0.46,4.492,1.2c-0.016,5.096,0.168,8.124,0.168,8.124c0-0.92,0.1-1.74,0.132-2.632
		c2.36-67.128,92.76-49.504,120.204-69.992c2.996-2.236,5.248-4.928,6.544-8.24c14.916,14.312,25.356,35.024,28.376,58.672
		c0.036,0.296,0.06,0.596,0.096,0.892c0.468,3.92,0.728,7.916,0.776,11.976c0.008,0,0.02-0.004,0.028-0.004
		c5.148,0,9.324,4.176,9.324,9.324s-4.176,9.324-9.324,9.324c-0.456,0-0.896-0.072-1.336-0.136
		c-4.228,27.26-18.344,50.352-37.74,63.764l-3.352,24.74c49.784-11.484,80.824-38.136,94.912-64.92c0,0-32.5-51.64-37.304-70.928
		c-13.472-54.24-46.476-101.276-102.576-105.988c-56.088,4.704-89.112,51.748-102.584,106
		c-4.776,19.288-37.304,70.928-37.304,70.928c15.812,30.072,52.928,60.052,114.044,68.508l-3.844-28.332
		C197.16,306.08,182.84,282.24,178.976,254.164z"/>
	<path style="fill:#FFDC80;" d="M291.164,348.124L291.164,348.124c56.608-7.832,92.64-34.124,110.196-61.868
		C383.804,314,347.772,340.292,291.164,348.124z"/>
</g>
<path style="fill:#F2CD6D;" d="M349.26,208.688c4.804,19.288,37.304,70.928,37.304,70.928
	c-14.088,26.784-45.128,53.436-94.912,64.92l-0.488,3.588c56.608-7.832,92.64-34.124,110.196-61.868
	c1.396-2.208,2.676-4.424,3.844-6.64c0,0-32.496-51.64-37.296-70.928C353.7,151.5,317.812,102.284,256,102.284
	c-1.64,0-3.252,0.044-4.852,0.12c-1.452,0.068-2.892,0.168-4.32,0.284c-0.048,0.004-0.1,0.004-0.152,0.012c0.004,0,0.004,0,0.008,0
	C302.784,107.412,335.788,154.448,349.26,208.688z"/>
<path style="fill:#FFD7CC;" d="M252.316,414.652c10.58-14.072,23.868-44.524,23.868-44.524l5.848-43.168
	c-8.144,3.448-16.904,5.34-26.032,5.34c-14.212,0-27.524-4.564-39.004-12.504l3.844,28.332l1.196,8.812l0,0L252.316,414.652z"/>
<path style="fill:#F2CCC2;" d="M291.652,344.536l3.352-24.74c-4.104,2.84-8.44,5.248-12.972,7.164l-5.848,43.168
	c0,0-13.284,30.452-23.868,44.524l3.684,7.02l33.964-64.728l0.008,0.004l1.196-8.82v-0.004L291.652,344.536z"/>
<g>
	<path style="fill:#2179A6;" d="M177.924,246.844c0,0-0.184-3.028-0.168-8.124c-1.336-0.74-2.852-1.2-4.492-1.2
		c-5.148,0-9.324,4.176-9.324,9.324s4.176,9.324,9.324,9.324c2.164,0,4.132-0.768,5.712-2.004c-0.448-3.264-0.764-6.58-0.924-9.948
		C178.024,245.104,177.924,245.924,177.924,246.844z"/>
	<path style="fill:#2179A6;" d="M332.744,256.032c0.44,0.064,0.88,0.136,1.336,0.136c5.148,0,9.324-4.176,9.324-9.324
		s-4.176-9.324-9.324-9.324c-0.008,0-0.02,0.004-0.028,0.004c0.004,0.456,0.028,0.904,0.028,1.36
		C334.08,244.744,333.608,250.472,332.744,256.032z"/>
</g>
<g>
	<path style="fill:#FFE1D9;" d="M333.18,224.656c0.036,0.296,0.06,0.596,0.096,0.892C333.24,225.252,333.216,224.952,333.18,224.656
		z"/>
	<path style="fill:#FFE1D9;" d="M332.744,256.032c0.864-5.564,1.336-11.288,1.336-17.148c0,51.588-34.964,93.416-78.08,93.416
		c9.132,0,17.888-1.892,26.032-5.34c4.532-1.916,8.868-4.328,12.972-7.164C314.4,306.384,328.516,283.296,332.744,256.032z"/>
	<path style="fill:#FFE1D9;" d="M320.092,238.884c0-25.132-8.34-47.884-21.832-64.66c-27.444,20.484-117.844,2.864-120.204,69.992
		c0.16,3.368,0.472,6.684,0.924,9.948c3.864,28.076,18.184,51.916,38.02,65.632c11.48,7.936,24.792,12.504,39.004,12.504
		c-2.364,0-4.684-0.172-6.992-0.424C288.84,327.64,320.092,287.648,320.092,238.884z"/>
</g>
<path style="fill:#F2D6CE;" d="M334.08,238.884c0-0.456-0.024-0.908-0.028-1.36c-0.048-4.06-0.308-8.056-0.776-11.976
	c-0.036-0.296-0.056-0.596-0.096-0.892c-3.02-23.648-13.46-44.36-28.376-58.672c-1.296,3.308-3.544,6-6.544,8.24
	c13.492,16.78,21.832,39.528,21.832,64.66c0,48.764-31.252,88.756-71.084,92.992c2.308,0.252,4.628,0.424,6.992,0.424
	C299.116,332.3,334.08,290.472,334.08,238.884z"/>
<g>
	<polygon style="fill:#F5F5F5;" points="202.336,392.668 194,403.332 256,452.336 318,403.332 309.664,392.668 339.216,387.528 
		340.332,387.332 334.296,383.692 289.972,356.948 289.964,356.944 256,421.672 252.316,414.652 222.036,356.944 222.036,356.944 
		177.704,383.692 171.668,387.332 	"/>
	<ellipse style="fill:#F5F5F5;" cx="220" cy="232" rx="16" ry="12"/>
</g>
<circle style="fill:#2179A6;" cx="220" cy="232" r="8"/>
<ellipse style="fill:#F5F5F5;" cx="292" cy="232" rx="16" ry="12"/>
<circle style="fill:#2179A6;" cx="292" cy="232" r="8"/>
<g>
</g>
<g>
</g>
<g>
</g>
<g>
</g>
<g>
</g>
<g>
</g>
<g>
</g>
<g>
</g>
<g>
</g>
<g>
</g>
<g>
</g>
<g>
</g>
<g>
</g>
<g>
</g>
<g>
</g>
</svg>
